<svg id="layer" xmlns="http://www.w3.org/2000/svg" viewBox="0 0 890.01 336.38"><defs><style>.cls-1{fill:none;stroke:#e66831;stroke-miterlimit:10;stroke-width:2px;}.cls-2{fill:#e66831;}</style></defs><title>gospelfelloeship3</title><g id="gospelfellowship"><path class="cls-1" d="M549.35,35.46a61.5,61.5,0,0,1,29.56,7.67v18Q562.59,51.33,550,51.33q-7.68,0-12,3a9.18,9.18,0,0,0-4.32,7.93q0,5.94,8,11,2.27,1.5,17.37,8.42Q572,87.72,577.7,95.17a28.52,28.52,0,0,1,5.72,17.89q0,13.55-9.74,21.85t-25.23,8.31A59.63,59.63,0,0,1,531.12,141a75.22,75.22,0,0,1-16.28-7.63v-20q16.85,14,31.73,14c5,0,9-1.08,12-3.23a10,10,0,0,0,4.59-8.57q0-7.3-8-11.88-6.62-3.61-17.07-8.65-12.4-5.64-18.54-13.16a26.83,26.83,0,0,1-6.12-17.45q0-13.23,9.85-21.09T549.35,35.46Z" transform="translate(-103.58 -34.46)"/><path class="cls-1" d="M634.07,36.82q14.73,0,23.95,8.53t9.21,22q0,13.61-9.32,22T633.32,97.8H613.77v44.06H593.46v-105Zm-5,45.11q8.13,0,12.67-3.72t4.55-11q0-14.52-18.65-14.52H613.77V81.93Z" transform="translate(-103.58 -34.46)"/><path class="cls-1" d="M743.6,36.82V52.68H696v27.6h45.57V96.15H696V126h48.65v15.86H675.7v-105Z" transform="translate(-103.58 -34.46)"/><path class="cls-1" d="M776.2,36.82V126h51v15.86H755.9v-105Z" transform="translate(-103.58 -34.46)"/><path class="cls-2" d="M506,247.31c-20.87,0-35.48-18.37-35.48-44.89,0-26,14.61-44.63,35-44.63,15.77,0,26.43,8.16,36.63,28.06,10.67-20.41,20.87-28.06,38-28.06,19.24,0,33.84,19.13,33.84,44.63,0,26.27-14.6,44.89-35,44.89-15.77,0-26.43-8.16-36.87-28.06C532.16,238.89,521.27,247.31,506,247.31Zm-.47-72.94c-11.82,0-19.94,11.22-19.94,28,0,17.09,8.12,28.31,19.94,28.31,8.35,0,14.38-4.08,21.1-13.77,2.78-3.83,8.11-13.52,8.11-14.28v-.26C525.9,183.3,516.86,174.37,505.5,174.37ZM579,230.73c12,0,19.93-11.22,19.93-28.31,0-16.83-7.88-28-19.93-28-8.35,0-14.38,4.08-21.1,13.77-2.78,3.83-8.12,13.52-8.12,14.28C558.59,221.8,567.64,230.73,579,230.73Z" transform="translate(-103.58 -34.46)"/><path class="cls-1" d="M168.65,263.44V279.3H124.88v27.15h43.77v16H124.88v46h-20.3v-105Z" transform="translate(-103.58 -34.46)"/><path class="cls-1" d="M247.35,263.44V279.3h-47.6v27.6h45.57v15.87H199.75v29.85H248.4v15.87h-69v-105Z" transform="translate(-103.58 -34.46)"/><path class="cls-1" d="M280,263.44v89.18h51v15.87H259.65v-105Z" transform="translate(-103.58 -34.46)"/><path class="cls-1" d="M357.45,263.44v89.18h51v15.87H337.14v-105Z" transform="translate(-103.58 -34.46)"/><path class="cls-1" d="M468.48,262.08a63.14,63.14,0,0,1,29.36,6.73,53.06,53.06,0,0,1,.23,94.07,66.38,66.38,0,0,1-59.4-.11A52,52,0,0,1,410.43,316a52.9,52.9,0,0,1,7.44-27.15,51.69,51.69,0,0,1,20.53-19.73Q451.48,262.09,468.48,262.08ZM431.41,316a37.41,37.41,0,0,0,4.74,18.8,32.83,32.83,0,0,0,13.19,12.93,39.48,39.48,0,0,0,19.14,4.59q16.17,0,26.58-10.15T505.48,316a37.9,37.9,0,0,0-4.7-18.84,32.55,32.55,0,0,0-13.24-13,42.41,42.41,0,0,0-38.42,0A32,32,0,0,0,436,297.16,38.31,38.31,0,0,0,431.41,316Z" transform="translate(-103.58 -34.46)"/><path class="cls-1" d="M547.71,263.44l26.16,64.82,27.53-64.82h17.14l27.67,65,26.09-65h20.76l-43.24,106.4H643l-33.09-77.9-33.23,77.9H570l-43.31-106.4Z" transform="translate(-103.58 -34.46)"/><path class="cls-1" d="M728,262.08a61.5,61.5,0,0,1,29.56,7.67V287.8q-16.32-9.85-28.95-9.85-7.68,0-12,3a9.19,9.19,0,0,0-4.32,7.93q0,5.94,8,11,2.26,1.51,17.37,8.42,12.94,6.11,18.65,13.54a28.53,28.53,0,0,1,5.72,17.9q0,13.53-9.74,21.84t-25.23,8.31a59.63,59.63,0,0,1-17.33-2.22A75.22,75.22,0,0,1,693.48,360V340q16.85,14,31.73,14,7.44,0,12-3.23a10,10,0,0,0,4.59-8.57q0-7.29-8-11.88-6.61-3.62-17.07-8.65-12.4-5.64-18.54-13.16A26.82,26.82,0,0,1,692.13,291q0-13.25,9.85-21.1T728,262.08Z" transform="translate(-103.58 -34.46)"/><path class="cls-2" d="M792.88,263.44v44.21H847.4V263.44h20.3V368.49H847.4V324.12H792.88v44.37h-20.3v-105Z" transform="translate(-103.58 -34.46)"/><path class="cls-2" d="M903.92,263.44V368.49H883.61v-105Z" transform="translate(-103.58 -34.46)"/><path class="cls-2" d="M960.43,263.44q14.75,0,24,8.53t9.21,22q0,13.61-9.32,22t-24.59,8.42H940.13v44.07h-20.3v-105Zm-5,45.12q8.13,0,12.68-3.73t4.55-11q0-14.52-18.65-14.52H940.13v29.26Z" transform="translate(-103.58 -34.46)"/><path class="cls-2" d="M332,35.46a92.7,92.7,0,0,1,38.5,8.65V62.68Q351.41,53,332.92,53a44.15,44.15,0,0,0-20.45,4.59,33,33,0,0,0-13.88,13.2A38,38,0,0,0,293.67,90q0,16.09,10.71,25.9t28.24,9.82a49.84,49.84,0,0,0,9.21-.83,62,62,0,0,0,10.49-3.16V104.27H335V88.4h37.67v43.31A60.79,60.79,0,0,1,354,140.17a83.28,83.28,0,0,1-22.59,3.05,65.68,65.68,0,0,1-30.12-6.84,51.25,51.25,0,0,1-28.61-46.7,52.4,52.4,0,0,1,7.63-27.9,51.79,51.79,0,0,1,21.28-19.4A66.35,66.35,0,0,1,332,35.46Z" transform="translate(-103.58 -34.46)"/><path class="cls-2" d="M440.42,35.46a63.14,63.14,0,0,1,29.36,6.73,52.88,52.88,0,0,1,28.54,47.19A52.79,52.79,0,0,1,470,136.26a66.4,66.4,0,0,1-59.41-.11,52,52,0,0,1-28.23-46.77,52.85,52.85,0,0,1,7.44-27.15,51.78,51.78,0,0,1,20.53-19.74Q423.42,35.47,440.42,35.46ZM403.35,89.38a37.41,37.41,0,0,0,4.74,18.8,32.89,32.89,0,0,0,13.19,12.93,39.48,39.48,0,0,0,19.14,4.59q16.17,0,26.58-10.15t10.42-26.17a37.9,37.9,0,0,0-4.7-18.84,32.55,32.55,0,0,0-13.24-13,42.33,42.33,0,0,0-38.42,0,32,32,0,0,0-13.12,12.93A38.31,38.31,0,0,0,403.35,89.38Z" transform="translate(-103.58 -34.46)"/><path class="cls-2" d="M506,247.31c-20.87,0-35.48-18.37-35.48-44.89,0-26,14.61-44.63,35-44.63,15.77,0,26.43,8.16,36.63,28.06,10.67-20.41,20.87-28.06,38-28.06,19.24,0,33.84,19.13,33.84,44.63,0,26.27-14.6,44.89-35,44.89-15.77,0-26.43-8.16-36.87-28.06C532.16,238.89,521.27,247.31,506,247.31Zm-.47-72.94c-11.82,0-19.94,11.22-19.94,28,0,17.09,8.12,28.31,19.94,28.31,8.35,0,14.38-4.08,21.1-13.77,2.78-3.83,8.11-13.52,8.11-14.28v-.26C525.9,183.3,516.86,174.37,505.5,174.37ZM579,230.73c12,0,19.93-11.22,19.93-28.31,0-16.83-7.88-28-19.93-28-8.35,0-14.38,4.08-21.1,13.77-2.78,3.83-8.12,13.52-8.12,14.28C558.59,221.8,567.64,230.73,579,230.73Z" transform="translate(-103.58 -34.46)"/></g></svg>